<svg xmlns="http://www.w3.org/2000/svg" viewBox="0 0 640 420">
  <defs><linearGradient id="g" x1="0" y1="0" x2="1" y2="1"><stop stop-color="#4c0b31"/><stop offset=".55" stop-color="#b12a58"/><stop offset="1" stop-color="#ffd2df"/></linearGradient></defs>
  <rect width="640" height="420" fill="url(#g)"/>
  <circle cx="278" cy="154" r="66" fill="#ffd2df"/>
  <path d="M190 320c20-58 154-62 180 0" fill="#fff8fb" opacity=".86"/>
  <path d="M402 114h112a34 34 0 0 1 34 34v54a34 34 0 0 1-34 34h-54l-46 42v-42h-12a34 34 0 0 1-34-34v-54a34 34 0 0 1 34-34Z" fill="#fff8fb" opacity=".9"/>
  <path d="M426 164h80M426 202h58" stroke="#a4145c" stroke-width="13" stroke-linecap="round"/>
</svg>
